{"title":"Road to Perdition [x264](AC3)(5.1 ch).NORDIC_sub.mkv","uid":5209384,"size":2010957639,"categoryP":"video","categoryS":"movies","magnet":"?xt=urn:btih:9ca57426bc54ec838a47d5aba046ef95f0e6f21e&amp;dn=Road+to+Perdition+%5Bx264%5D%28AC3%29%285.1+ch%29.NORDIC_sub.mkv&amp;tr=udp%3A%2F%2Ftracker.openbittorrent.com%3A80&amp;tr=udp%3A%2F%2Fopen.demonii.com%3A1337&amp;tr=udp%3A%2F%2Ftracker.coppersurfer.tk%3A6969&amp;tr=udp%3A%2F%2Fexodus.desync.com%3A6969","seeders":0,"leechers":1,"uploader":"Zen_Bud","files":-1,"time":1260524464,"description":"General\nComplete name                    : Road to Perdition.mkv\nFormat                           : Matroska\nFile size                        : 1.87 GiB\nDuration                         : 1h 52mn\nOverall bit rate                 : 2 391 Kbps\n\n\nVideo\nID                               : 1\nFormat                           : AVC\nFormat/Info                      : Advanced Video Codec\nFormat profile                   : &lt;a class=&quot;__cf_email__&quot; href=&quot;/cdn-cgi/l/email-protection&quot; data-cfemail=&quot;6c210d05022c205f425c&quot;&gt;[email&amp;#160;protected]&lt;/a&gt;&lt;script cf-hash='f9e31' type=&quot;text/javascript&quot;&gt;\n/* &lt;![CDATA[ */!function(){try{var t=&quot;currentScript&quot;in document?document.currentScript:function(){for(var t=document.getElementsByTagName(&quot;script&quot;),e=t.length;e--;)if(t[e].getAttribute(&quot;cf-hash&quot;))return t[e]}();if(t&amp;&amp;t.previousSibling){var e,r,n,i,c=t.previousSibling,a=c.getAttribute(&quot;data-cfemail&quot;);if(a){for(e=&quot;&quot;,r=parseInt(a.substr(0,2),16),n=2;a.length-n;n+=2)i=parseInt(a.substr(n,2),16)^r,e+=String.fromCharCode(i);e=document.createTextNode(e),c.parentNode.replaceChild(e,c)}}}catch(u){}}();/* ]]&gt; */&lt;/script&gt;\nFormat settings, CABAC           : Yes\nFormat settings, ReFrames        : 2 frames\nMuxing mode                      : Container profile=&lt;a class=&quot;__cf_email__&quot; href=&quot;/cdn-cgi/l/email-protection&quot; data-cfemail=&quot;24714a4f4a4b534a64170a14&quot;&gt;[email&amp;#160;protected]&lt;/a&gt;&lt;script cf-hash='f9e31' type=&quot;text/javascript&quot;&gt;\n/* &lt;![CDATA[ */!function(){try{var t=&quot;currentScript&quot;in document?document.currentScript:function(){for(var t=document.getElementsByTagName(&quot;script&quot;),e=t.length;e--;)if(t[e].getAttribute(&quot;cf-hash&quot;))return t[e]}();if(t&amp;&amp;t.previousSibling){var e,r,n,i,c=t.previousSibling,a=c.getAttribute(&quot;data-cfemail&quot;);if(a){for(e=&quot;&quot;,r=parseInt(a.substr(0,2),16),n=2;a.length-n;n+=2)i=parseInt(a.substr(n,2),16)^r,e+=String.fromCharCode(i);e=document.createTextNode(e),c.parentNode.replaceChild(e,c)}}}catch(u){}}();/* ]]&gt; */&lt;/script&gt;\nCodec ID                         : V_MPEG4/ISO/AVC\nDuration                         : 1h 52mn\nBit rate                         : 1 889 Kbps\nNominal bit rate                 : 1 918 Kbps\nWidth                            : 718 pixels\nHeight                           : 436 pixels\nDisplay aspect ratio             : 2.35\nFrame rate                       : 25.000 fps\nResolution                       : 24 bits\nColorimetry                      : 4:2:0\nScan type                        : Progressive\nBits/(Pixel*Frame)               : 0.241\nStream size                      : 1.48 GiB (79%)\nWriting library                  : x264 core 79\nip_ratio=1.40 / aq=1:1.00\n\nAudio\nID                               : 2\nFormat                           : AC-3\nFormat/Info                      : Audio Coding 3\nCodec ID                         : A_AC3\nDuration                         : 1h 52mn\nBit rate mode                    : Constant\nBit rate                         : 448 Kbps\nChannel(s)                       : 6 channels\nChannel positions                : Front: L C R, Surround: L R, LFE\nSampling rate                    : 48.0 KHz\nStream size                      : 359 MiB (19%)\nLanguage                         : English\n\nText #1\nLanguage                         : English\n\nText #2\nLanguage                         : English\n\nText #3\nLanguage                         : Swedish\n\nText #4\nLanguage                         : Danish\n\nText #5\nLanguage                         : Icelandic\n\nText #6\nLanguage                         : Finnish\n\nText #7\nLanguage                         : Norwegian","torrent":{"xt":"urn:btih:9ca57426bc54ec838a47d5aba046ef95f0e6f21e","amp;dn":"Road+to+Perdition+%5Bx264%5D%28AC3%29%285.1+ch%29.NORDIC_sub.mkv","amp;tr":["udp%3A%2F%2Ftracker.openbittorrent.com%3A80","udp%3A%2F%2Fopen.demonii.com%3A1337","udp%3A%2F%2Ftracker.coppersurfer.tk%3A6969","udp%3A%2F%2Fexodus.desync.com%3A6969"],"infoHash":"9ca57426bc54ec838a47d5aba046ef95f0e6f21e","infoHashBuffer":{"type":"Buffer","data":[156,165,116,38,188,84,236,131,138,71,213,171,160,70,239,149,240,230,242,30]},"announce":[],"urlList":[]}}